<?xml version="1.0" encoding="UTF-8" standalone="no"?>
<!-- Created with Inkscape (http://www.inkscape.org/) -->

<svg
   width="768.16418mm"
   height="148.86366mm"
   viewBox="0 0 768.16419 148.86367"
   version="1.1"
   id="svg1"
   xml:space="preserve"
   inkscape:version="1.4.4 (dcaf3e7d9e, 2026-05-05)"
   sodipodi:docname="logo.svg"
   inkscape:export-filename="/home/pdimens/linkednloadedfull.png"
   inkscape:export-xdpi="96"
   inkscape:export-ydpi="96"
   xmlns:inkscape="http://www.inkscape.org/namespaces/inkscape"
   xmlns:sodipodi="http://sodipodi.sourceforge.net/DTD/sodipodi-0.dtd"
   xmlns:xlink="http://www.w3.org/1999/xlink"
   xmlns="http://www.w3.org/2000/svg"
   xmlns:svg="http://www.w3.org/2000/svg"><sodipodi:namedview
     id="namedview1"
     pagecolor="#ffffff"
     bordercolor="#000000"
     borderopacity="0.25"
     inkscape:showpageshadow="2"
     inkscape:pageopacity="0.0"
     inkscape:pagecheckerboard="0"
     inkscape:deskcolor="#d1d1d1"
     inkscape:document-units="mm"
     inkscape:zoom="0.71306556"
     inkscape:cx="-131.82519"
     inkscape:cy="463.49174"
     inkscape:window-width="1884"
     inkscape:window-height="1022"
     inkscape:window-x="0"
     inkscape:window-y="0"
     inkscape:window-maximized="0"
     inkscape:current-layer="layer1"
     showgrid="false" /><defs
     id="defs1"><linearGradient
       id="linearGradient43"
       inkscape:collect="always"><stop
         style="stop-color:#55a6f4;stop-opacity:1;"
         offset="0"
         id="stop43" /><stop
         style="stop-color:#765ff5;stop-opacity:1;"
         offset="1"
         id="stop44" /></linearGradient><linearGradient
       id="linearGradient41"
       inkscape:collect="always"><stop
         style="stop-color:#57a1f4;stop-opacity:1;"
         offset="0"
         id="stop41" /><stop
         style="stop-color:#7464f5;stop-opacity:1;"
         offset="1"
         id="stop42" /></linearGradient><linearGradient
       id="linearGradient39"
       inkscape:collect="always"><stop
         style="stop-color:#5a9df4;stop-opacity:1;"
         offset="0"
         id="stop39" /><stop
         style="stop-color:#7169f5;stop-opacity:1;"
         offset="1"
         id="stop40" /></linearGradient><linearGradient
       id="linearGradient37"
       inkscape:collect="always"><stop
         style="stop-color:#6c75f5;stop-opacity:1;"
         offset="0"
         id="stop37" /><stop
         style="stop-color:#5e92f4;stop-opacity:1;"
         offset="1"
         id="stop38" /></linearGradient><linearGradient
       id="linearGradient35"
       inkscape:collect="always"><stop
         style="stop-color:#697af5;stop-opacity:1;"
         offset="0"
         id="stop35" /><stop
         style="stop-color:#618df4;stop-opacity:1;"
         offset="1"
         id="stop36" /></linearGradient><linearGradient
       id="linearGradient33"
       inkscape:collect="always"><stop
         style="stop-color:#677ff5;stop-opacity:1;"
         offset="0"
         id="stop33" /><stop
         style="stop-color:#6388f4;stop-opacity:1;"
         offset="1"
         id="stop34" /></linearGradient><linearGradient
       id="linearGradient31"
       inkscape:collect="always"><stop
         style="stop-color:#677ff5;stop-opacity:1;"
         offset="0"
         id="stop31" /><stop
         style="stop-color:#6289f4;stop-opacity:1;"
         offset="1"
         id="stop32" /></linearGradient><linearGradient
       id="linearGradient29"
       inkscape:collect="always"><stop
         style="stop-color:#6a7af5;stop-opacity:1;"
         offset="0"
         id="stop29" /><stop
         style="stop-color:#5f90f4;stop-opacity:1;"
         offset="1"
         id="stop30" /></linearGradient><linearGradient
       id="linearGradient27"
       inkscape:collect="always"><stop
         style="stop-color:#6c74f5;stop-opacity:1;"
         offset="0"
         id="stop27" /><stop
         style="stop-color:#5d96f3;stop-opacity:1;"
         offset="1"
         id="stop28" /></linearGradient><linearGradient
       id="linearGradient25"
       inkscape:collect="always"><stop
         style="stop-color:#57a3f4;stop-opacity:1;"
         offset="0"
         id="stop25" /><stop
         style="stop-color:#7268f5;stop-opacity:1;"
         offset="1"
         id="stop26" /></linearGradient><linearGradient
       id="linearGradient23"
       inkscape:collect="always"><stop
         style="stop-color:#55a8f4;stop-opacity:1;"
         offset="0"
         id="stop23" /><stop
         style="stop-color:#7464f5;stop-opacity:1;"
         offset="1"
         id="stop24" /></linearGradient><linearGradient
       id="linearGradient22"
       inkscape:collect="always"><stop
         style="stop-color:#7a56f5;stop-opacity:1;"
         offset="0"
         id="stop22" /><stop
         style="stop-color:#52adf4;stop-opacity:1;"
         offset="1"
         id="stop21" /></linearGradient><linearGradient
       id="linearGradient12"
       inkscape:collect="always"><stop
         style="stop-color:#52adf4;stop-opacity:1;"
         offset="0"
         id="stop12" /><stop
         style="stop-color:#7a56f5;stop-opacity:1;"
         offset="1"
         id="stop13" /></linearGradient><linearGradient
       inkscape:collect="always"
       xlink:href="#linearGradient22"
       id="linearGradient15"
       x1="129.57269"
       y1="160.2007"
       x2="275.47302"
       y2="42.595566"
       gradientUnits="userSpaceOnUse"
       gradientTransform="translate(0,21.166667)" /><linearGradient
       inkscape:collect="always"
       xlink:href="#linearGradient12"
       id="linearGradient19"
       x1="131.004"
       y1="96.365799"
       x2="276.21451"
       y2="96.365799"
       gradientUnits="userSpaceOnUse" /><linearGradient
       inkscape:collect="always"
       xlink:href="#linearGradient12"
       id="linearGradient21"
       gradientUnits="userSpaceOnUse"
       gradientTransform="translate(0,21.166667)"
       x1="129.31937"
       y1="123.76321"
       x2="276.99298"
       y2="41.3391" /><linearGradient
       inkscape:collect="always"
       xlink:href="#linearGradient23"
       id="linearGradient24"
       x1="41.806496"
       y1="196.56441"
       x2="40.971725"
       y2="218.22752"
       gradientUnits="userSpaceOnUse" /><linearGradient
       inkscape:collect="always"
       xlink:href="#linearGradient25"
       id="linearGradient26"
       x1="51.433529"
       y1="202.29076"
       x2="51.18956"
       y2="217.56964"
       gradientUnits="userSpaceOnUse" /><linearGradient
       inkscape:collect="always"
       xlink:href="#linearGradient27"
       id="linearGradient28"
       x1="75.581421"
       y1="207.55424"
       x2="75.73027"
       y2="217.12115"
       gradientUnits="userSpaceOnUse" /><linearGradient
       inkscape:collect="always"
       xlink:href="#linearGradient29"
       id="linearGradient30"
       x1="87.277191"
       y1="203.28763"
       x2="86.915253"
       y2="221.03178"
       gradientUnits="userSpaceOnUse" /><linearGradient
       inkscape:collect="always"
       xlink:href="#linearGradient31"
       id="linearGradient32"
       x1="98.364319"
       y1="205.79047"
       x2="98.506203"
       y2="218.63467"
       gradientUnits="userSpaceOnUse" /><linearGradient
       inkscape:collect="always"
       xlink:href="#linearGradient33"
       id="linearGradient34"
       x1="120.19787"
       y1="200.79131"
       x2="120.35142"
       y2="214.97044"
       gradientUnits="userSpaceOnUse" /><linearGradient
       inkscape:collect="always"
       xlink:href="#linearGradient35"
       id="linearGradient36"
       x1="130.81364"
       y1="196.74435"
       x2="130.97687"
       y2="216.26254"
       gradientUnits="userSpaceOnUse" /><linearGradient
       inkscape:collect="always"
       xlink:href="#linearGradient37"
       id="linearGradient38"
       x1="141.36693"
       y1="199.02283"
       x2="142.00241"
       y2="212.24544"
       gradientUnits="userSpaceOnUse" /><linearGradient
       inkscape:collect="always"
       xlink:href="#linearGradient39"
       id="linearGradient40"
       x1="163.04462"
       y1="200.59674"
       x2="163.05487"
       y2="211.64905"
       gradientUnits="userSpaceOnUse" /><linearGradient
       inkscape:collect="always"
       xlink:href="#linearGradient41"
       id="linearGradient42"
       x1="173.14977"
       y1="196.68541"
       x2="173.22627"
       y2="214.01913"
       gradientUnits="userSpaceOnUse" /><linearGradient
       inkscape:collect="always"
       xlink:href="#linearGradient43"
       id="linearGradient44"
       x1="182.44028"
       y1="198.22739"
       x2="182.24963"
       y2="213.00436"
       gradientUnits="userSpaceOnUse" /><linearGradient
       inkscape:collect="always"
       xlink:href="#linearGradient22"
       id="linearGradient1"
       gradientUnits="userSpaceOnUse"
       gradientTransform="translate(0,21.166667)"
       x1="129.57269"
       y1="160.2007"
       x2="275.47302"
       y2="42.595566" /></defs><g
     inkscape:label="Layer 1"
     inkscape:groupmode="layer"
     id="layer1"
     transform="translate(136.74043,111.72336)"><g
       id="g14"
       transform="matrix(0.33822294,0.712461,-0.712461,0.33822294,132.09459,-5.4448306)" /><text
       xml:space="preserve"
       style="font-style:normal;font-variant:normal;font-weight:normal;font-stretch:normal;font-size:145.341px;font-family:'URW Gothic';-inkscape-font-specification:'URW Gothic, Normal';font-variant-ligatures:normal;font-variant-caps:normal;font-variant-numeric:normal;font-variant-east-asian:normal;writing-mode:lr-tb;direction:ltr;fill:#52adf4;fill-opacity:1;stroke-width:71.9613;stroke-linecap:round;stroke-linejoin:round;paint-order:markers stroke fill"
       x="1.2216208"
       y="10.907066"
       id="text17"><tspan
         id="tspan17"
         style="font-style:normal;font-variant:normal;font-weight:normal;font-stretch:normal;font-size:145.341px;font-family:'URW Gothic';-inkscape-font-specification:'URW Gothic, Normal';font-variant-ligatures:normal;font-variant-caps:normal;font-variant-numeric:normal;font-variant-east-asian:normal;fill:#52adf4;fill-opacity:1;stroke-width:71.9613"
         x="1.2216208"
         y="10.907066"
         sodipodi:role="line">BLink-</tspan></text><text
       xml:space="preserve"
       style="font-style:normal;font-variant:normal;font-weight:normal;font-stretch:normal;font-size:145.341px;font-family:'URW Gothic';-inkscape-font-specification:'URW Gothic, Normal';font-variant-ligatures:normal;font-variant-caps:normal;font-variant-numeric:normal;font-variant-east-asian:normal;writing-mode:lr-tb;direction:ltr;fill:#697bf5;fill-opacity:1;stroke-width:71.9613;stroke-linecap:round;stroke-linejoin:round;paint-order:markers stroke fill"
       x="390.59348"
       y="9.2349167"
       id="text18"><tspan
         sodipodi:role="line"
         id="tspan18"
         style="font-style:normal;font-variant:normal;font-weight:normal;font-stretch:normal;font-size:145.341px;font-family:'URW Gothic';-inkscape-font-specification:'URW Gothic, Normal';font-variant-ligatures:normal;font-variant-caps:normal;font-variant-numeric:normal;font-variant-east-asian:normal;fill:#697bf5;fill-opacity:1;stroke-width:71.9613"
         x="390.59348"
         y="9.2349167">seq</tspan></text><g
       id="g17"
       transform="matrix(0.92984348,0,0,0.93736872,-256.99937,-133.29837)"
       inkscape:export-filename="/home/pdimens/Projects/logo.webp"
       inkscape:export-xdpi="150"
       inkscape:export-ydpi="150"><g
         id="g15"><circle
           style="fill:#d8d8d8;fill-opacity:1;stroke-width:7.86;stroke-linecap:round;stroke-linejoin:round;paint-order:markers stroke fill"
           id="path13"
           cx="72.243881"
           cy="114.33101"
           r="5.4650645"
           transform="matrix(0.31386107,0.65583545,-0.66114314,0.31134138,252.63652,-33.159523)" /><rect
           style="fill:#d8d8d8;fill-opacity:1;stroke-width:5.77405;stroke-linecap:round;stroke-linejoin:round;paint-order:markers stroke fill"
           id="rect14"
           width="3.9323316"
           height="9.4500074"
           x="70.277718"
           y="101.29456"
           ry="0"
           transform="matrix(0.31386107,0.65583545,-0.66114314,0.31134138,252.63652,-33.159523)" /><path
           style="fill:#188ef2;fill-opacity:1"
           d="m 228.57759,57.21478 c 0.63979,-2.438481 -0.55389,-5.037116 -2.09578,-6.566526 -1.28482,-1.274427 -3.15625,-2.005143 -4.13386,-3.524389 -0.80483,-1.25076 -1.06032,-2.789912 -1.2203,-4.2838 -0.37442,-3.975936 -1.82969,-6.205359 -4.65461,-7.130755 -5.4537,-1.786525 -10.21475,3.593052 -9.42326,10.647457 0.41826,3.727766 1.93166,7.299031 4.35901,10.286191 1.79264,2.206072 5.95602,4.913237 8.39048,5.320823 4.40232,0.737084 7.82471,-1.114413 8.77832,-4.749001 z"
           id="path12"
           sodipodi:nodetypes="ssasssscs" /></g><g
         id="g15-9"
         transform="matrix(0.92591169,0.37470754,0.38079711,-0.92591169,-51.245103,36.22977)"><circle
           style="fill:#d8d8d8;fill-opacity:1;stroke-width:7.86;stroke-linecap:round;stroke-linejoin:round;paint-order:markers stroke fill"
           id="path13-1"
           cx="72.243881"
           cy="114.33101"
           r="5.4650645"
           transform="matrix(0.31386107,0.65583545,-0.66114314,0.31134138,252.63652,-33.159523)" /><rect
           style="fill:#d8d8d8;fill-opacity:1;stroke-width:5.77405;stroke-linecap:round;stroke-linejoin:round;paint-order:markers stroke fill"
           id="rect14-2"
           width="3.9323316"
           height="9.4500074"
           x="70.277718"
           y="101.29456"
           ry="0"
           transform="matrix(0.31386107,0.65583545,-0.66114314,0.31134138,252.63652,-33.159523)" /><path
           style="fill:#188ef2;fill-opacity:1"
           d="m 228.57759,57.21478 c 0.63979,-2.438481 -0.55389,-5.037116 -2.09578,-6.566526 -1.28482,-1.274427 -3.15625,-2.005143 -4.13386,-3.524389 -0.80483,-1.25076 -1.06032,-2.789912 -1.2203,-4.2838 -0.37442,-3.975936 -1.82969,-6.205359 -4.65461,-7.130755 -5.4537,-1.786525 -10.21475,3.593052 -9.42326,10.647457 0.41826,3.727766 1.93166,7.299031 4.35901,10.286191 1.79264,2.206072 5.95602,4.913237 8.39048,5.320823 4.40232,0.737084 7.82471,-1.114413 8.77832,-4.749001 z"
           id="path12-7"
           sodipodi:nodetypes="ssasssscs" /></g><path
         id="path20"
         style="fill:url(#linearGradient1)"
         d="m 196.19921,117.22699 c -3.09099,0.16586 -7.06132,0.76341 -10.57967,2.08496 -10.02662,3.98711 -15.8474,12.92656 -19.34377,22.74048 -2.94773,8.73052 -5.71788,16.11499 -18.55493,20.43385 -0.94349,0.31742 -0.91321,0.58354 0.13667,0.88669 5.35582,1.19179 10.57268,-0.81282 14.60206,-4.26411 3.81571,-3.44559 6.17612,-7.51185 9.40958,-16.2097 2.99592,-8.05884 5.20684,-11.82723 8.33924,-14.58378 9.53765,-8.39319 17.88351,-5.17507 20.61073,-6.68538 0.55368,-0.30662 0.68239,-3.50112 0.68239,-3.89878 0,-0.40436 -2.21132,-0.67009 -5.3023,-0.50423 z" /><path
         id="path44"
         style="fill:url(#linearGradient15)"
         d="m 262.03173,66.627101 c -13.62679,-0.100993 -21.1736,10.199788 -25.5831,26.954165 -3.51968,13.373394 -8.02747,23.521094 -23.51436,23.521094 -1.99842,0 -2.33344,0.25137 -2.54301,1.90848 -0.0973,0.76928 -0.23485,1.71053 -0.32945,2.25858 -0.0946,0.54805 0.21614,0.86406 1.21037,0.86006 12.85107,-0.0527 24.51242,-3.71568 28.28197,-19.15567 6.70029,-27.444202 12.99306,-31.513453 32.7254,-32.221028 l 0.77782,-2.396538 c -1.63704,-0.384293 -3.30368,-0.730626 -4.80454,-1.037486 -2.20342,-0.450504 -4.27441,-0.677229 -6.2211,-0.691657 z" /><path
         id="path2"
         style="fill:url(#linearGradient19);fill-opacity:1"
         d="m 195.01932,169.34041 c -5.68636,-0.77228 -12.22206,-2.48696 -17.13536,-4.49555 -1.63514,-0.66845 -3.24105,-1.46556 -3.56869,-1.77135 -1.42474,-1.3297 -1.20585,-3.77994 0.4364,-4.88508 1.24442,-0.83741 2.02456,-0.76583 4.95752,0.45483 5.41714,2.25456 11.71058,3.86757 17.64288,4.52189 2.10848,0.23256 3.08366,0.46486 3.70417,0.88238 1.79268,1.20625 1.76296,3.8772 -0.0568,5.10177 -1.04373,0.70236 -1.99255,0.73269 -5.98014,0.19111 z m 39.66104,-7.89404 c -0.71277,-0.71277 -0.89959,-1.11198 -0.89959,-1.92236 0,-1.73116 0.7533,-2.72698 3.07255,-4.06173 6.56255,-3.77684 13.48062,-9.84367 18.54984,-16.26737 9.19378,-11.65033 14.34024,-26.28817 14.35822,-40.838448 0.003,-2.15056 0.0262,-2.23276 0.88672,-3.09326 1.12015,-1.12015 2.08458,-1.36963 3.44073,-0.89006 1.93401,0.6839 2.16288,1.30459 2.12142,5.753188 -0.14807,15.88723 -6.24469,31.96533 -16.97135,44.75712 -4.59303,5.47729 -11.38021,11.42433 -17.1282,15.00801 -3.17172,1.97747 -4.22808,2.45449 -5.43543,2.45449 -0.89289,0 -1.26159,-0.16626 -1.99491,-0.89958 z M 134.172,115.22064 c -0.51568,-0.45278 -1.00949,-1.13785 -1.10162,-1.52136 -0.7555,-3.14479 -0.88902,-3.84587 -1.43914,-7.3665 -0.53472,-3.35904 -0.62378,-4.87301 -0.62718,-10.661838 -0.005,-7.70441 0.276,-10.11275 1.99989,-17.168876 4.24378,-17.370391 15.53336,-33.310232 30.94892,-43.696996 8.3375,-5.617677 18.70261,-9.61639 29.34666,-11.282224 5.0268,-0.786714 15.45912,-0.6733 19.97604,0.0152 18.98954,2.894371 35.56158,12.902054 47.25625,28.537575 1.27675,1.706977 2.76528,3.897407 3.30784,4.867607 0.96697,1.729101 0.97907,1.785321 0.6112,2.840897 -0.43574,1.25036 -1.7732,2.28477 -2.95412,2.28477 -1.53932,0 -2.54629,-0.76333 -4.15329,-3.14837 -7.07813,-10.505084 -15.56114,-17.899318 -26.60538,-23.190685 -8.92011,-4.273676 -17.36032,-6.204697 -27.11979,-6.204697 -10.19385,0 -19.2175,2.117801 -28.7073,6.737457 -8.54897,4.161667 -16.38469,10.251844 -22.30197,17.832098 -3.8638,4.949677 -4.37655,6.087337 -6.4636,9.627838 -6.1789,10.621464 -9.23268,23.730826 -8.40598,36.085436 0.24531,3.666038 0.46326,5.243168 1.6078,11.634718 0.40593,2.26681 0.11303,3.25231 -1.20954,4.0697 -1.32442,0.81854 -2.82707,0.708 -3.96569,-0.29172 z"
         inkscape:export-filename="/home/pdimens/path2.png"
         inkscape:export-xdpi="96"
         inkscape:export-ydpi="96"
         sodipodi:nodetypes="sssssssssssssscsssssssccccssscssssssssscssscc" /><g
         id="g15-0"
         transform="matrix(-0.84870648,0.5246184,-0.53314425,-0.8487065,362.45819,52.506266)"><circle
           style="fill:#d8d8d8;fill-opacity:1;stroke-width:7.86;stroke-linecap:round;stroke-linejoin:round;paint-order:markers stroke fill"
           id="path13-6"
           cx="72.243881"
           cy="114.33101"
           r="5.4650645"
           transform="matrix(0.31386107,0.65583545,-0.66114314,0.31134138,252.63652,-33.159523)" /><rect
           style="fill:#d8d8d8;fill-opacity:1;stroke-width:5.77405;stroke-linecap:round;stroke-linejoin:round;paint-order:markers stroke fill"
           id="rect14-26"
           width="3.9323316"
           height="9.4500074"
           x="70.277718"
           y="101.29456"
           ry="0"
           transform="matrix(0.31386107,0.65583545,-0.66114314,0.31134138,252.63652,-33.159523)" /><path
           style="fill:#188ef2;fill-opacity:1"
           d="m 228.57759,57.21478 c 0.63979,-2.438481 -0.55389,-5.037116 -2.09578,-6.566526 -1.28482,-1.274427 -3.15625,-2.005143 -4.13386,-3.524389 -0.80483,-1.25076 -1.06032,-2.789912 -1.2203,-4.2838 -0.37442,-3.975936 -1.82969,-6.205359 -4.65461,-7.130755 -5.4537,-1.786525 -10.21475,3.593052 -9.42326,10.647457 0.41826,3.727766 1.93166,7.299031 4.35901,10.286191 1.79264,2.206072 5.95602,4.913237 8.39048,5.320823 4.40232,0.737084 7.82471,-1.114413 8.77832,-4.749001 z"
           id="path12-1"
           sodipodi:nodetypes="ssasssscs" /></g><g
         id="g15-02"
         transform="matrix(0.75152997,0.65440286,0.66503791,-0.75152997,21.769757,54.730095)"><circle
           style="fill:#d8d8d8;fill-opacity:1;stroke-width:7.86;stroke-linecap:round;stroke-linejoin:round;paint-order:markers stroke fill"
           id="path13-3"
           cx="72.243881"
           cy="114.33101"
           r="5.4650645"
           transform="matrix(0.31386107,0.65583545,-0.66114314,0.31134138,252.63652,-33.159523)" /><rect
           style="fill:#d8d8d8;fill-opacity:1;stroke-width:5.77405;stroke-linecap:round;stroke-linejoin:round;paint-order:markers stroke fill"
           id="rect14-7"
           width="3.9323316"
           height="9.4500074"
           x="70.277718"
           y="101.29456"
           ry="0"
           transform="matrix(0.31386107,0.65583545,-0.66114314,0.31134138,252.63652,-33.159523)" /><path
           style="fill:#188ef2;fill-opacity:1"
           d="m 228.57759,57.21478 c 0.63979,-2.438481 -0.55389,-5.037116 -2.09578,-6.566526 -1.28482,-1.274427 -3.15625,-2.005143 -4.13386,-3.524389 -0.80483,-1.25076 -1.06032,-2.789912 -1.2203,-4.2838 -0.37442,-3.975936 -1.82969,-6.205359 -4.65461,-7.130755 -5.4537,-1.786525 -10.21475,3.593052 -9.42326,10.647457 0.41826,3.727766 1.93166,7.299031 4.35901,10.286191 1.79264,2.206072 5.95602,4.913237 8.39048,5.320823 4.40232,0.737084 7.82471,-1.114413 8.77832,-4.749001 z"
           id="path12-5"
           sodipodi:nodetypes="ssasssscs" /></g><g
         id="g15-97"
         transform="matrix(-0.08815431,-0.98811004,1.0041683,-0.08815431,218.00562,339.3777)"><circle
           style="fill:#d8d8d8;fill-opacity:1;stroke-width:7.86;stroke-linecap:round;stroke-linejoin:round;paint-order:markers stroke fill"
           id="path13-36"
           cx="72.243881"
           cy="114.33101"
           r="5.4650645"
           transform="matrix(0.31386107,0.65583545,-0.66114314,0.31134138,252.63652,-33.159523)" /><rect
           style="fill:#d8d8d8;fill-opacity:1;stroke-width:5.77405;stroke-linecap:round;stroke-linejoin:round;paint-order:markers stroke fill"
           id="rect14-1"
           width="3.9323316"
           height="9.4500074"
           x="70.277718"
           y="101.29456"
           ry="0"
           transform="matrix(0.31386107,0.65583545,-0.66114314,0.31134138,252.63652,-33.159523)" /><path
           style="fill:#188ef2;fill-opacity:1"
           d="m 228.57759,57.21478 c 0.63979,-2.438481 -0.55389,-5.037116 -2.09578,-6.566526 -1.28482,-1.274427 -3.15625,-2.005143 -4.13386,-3.524389 -0.80483,-1.25076 -1.06032,-2.789912 -1.2203,-4.2838 -0.37442,-3.975936 -1.82969,-6.205359 -4.65461,-7.130755 -5.4537,-1.786525 -10.21475,3.593052 -9.42326,10.647457 0.41826,3.727766 1.93166,7.299031 4.35901,10.286191 1.79264,2.206072 5.95602,4.913237 8.39048,5.320823 4.40232,0.737084 7.82471,-1.114413 8.77832,-4.749001 z"
           id="path12-2"
           sodipodi:nodetypes="ssasssscs" /></g><path
         id="rect15"
         style="fill:url(#linearGradient28);fill-opacity:1;stroke-width:5.06178;stroke-linecap:round;stroke-linejoin:round;paint-order:markers stroke fill"
         transform="matrix(0.84816408,-0.5297336,0.53588448,0.84429131,0,0)"
         d="m 75.675739,205.13852 c 0.741755,0 1.333262,0.59991 1.338908,1.34505 l 0.08858,11.69164 c 0.0056,0.74514 -0.597153,1.34505 -1.338908,1.34505 -0.741756,0 -1.333264,-0.59991 -1.338909,-1.34505 l -0.08858,-11.69164 c -0.0056,-0.74514 0.597153,-1.34505 1.338909,-1.34505 z"
         sodipodi:nodetypes="sssssss" /><path
         id="rect15-4"
         style="fill:url(#linearGradient32);fill-opacity:1;stroke-width:5.06178;stroke-linecap:round;stroke-linejoin:round;paint-order:markers stroke fill"
         transform="matrix(0.84816408,-0.5297336,0.53588448,0.84429131,0,0)"
         d="m 98.459454,204.42977 c 0.741755,0 1.338192,0.59989 1.338908,1.34505 l 0.01177,12.26745 c 7.15e-4,0.74516 -0.597153,1.34505 -1.338908,1.34505 -0.741755,0 -1.338194,-0.59989 -1.338909,-1.34505 l -0.01177,-12.26745 c -7.16e-4,-0.74516 0.597154,-1.34505 1.338909,-1.34505 z"
         sodipodi:nodetypes="sssssss" /><path
         id="rect15-0"
         style="fill:url(#linearGradient34);fill-opacity:1;stroke-width:5.06178;stroke-linecap:round;stroke-linejoin:round;paint-order:markers stroke fill"
         transform="matrix(0.84816408,-0.5297336,0.53588448,0.84429131,0,0)"
         d="m 120.11743,200.04281 c 0.74176,0 1.33626,0.59989 1.33891,1.34505 l 0.0478,13.40805 c 0.003,0.74514 -0.59715,1.34505 -1.33891,1.34505 -0.74176,0 -1.33626,-0.59991 -1.33891,-1.34505 l -0.0478,-13.40805 c -0.003,-0.74516 0.59715,-1.34505 1.33891,-1.34505 z"
         sodipodi:nodetypes="sssssss" /><path
         id="rect15-6"
         style="fill:url(#linearGradient38);stroke-width:5.06178;stroke-linecap:round;stroke-linejoin:round;paint-order:markers stroke fill"
         transform="matrix(0.84816408,-0.5297336,0.53588448,0.84429131,0,0)"
         d="m 141.35941,197.47571 c 0.74175,0 1.31296,0.60034 1.3389,1.34505 l 0.45605,13.09221 c 0.0259,0.74471 -0.59715,1.34505 -1.3389,1.34505 -0.74176,0 -1.30047,-0.50781 -1.32691,-1.2525 l -0.46805,-13.18476 c -0.0264,-0.74469 0.59715,-1.34505 1.33891,-1.34505 z"
         sodipodi:nodetypes="sssssss" /><path
         id="rect15-1"
         style="fill:url(#linearGradient42);fill-opacity:1;stroke-width:5.06178;stroke-linecap:round;stroke-linejoin:round;paint-order:markers stroke fill"
         transform="matrix(0.84816408,-0.5297336,0.53588448,0.84429131,0,0)"
         d="m 173.17116,200.37833 c 0.74175,0 1.34313,0.59991 1.3389,1.34505 l -0.0699,12.32117 c -0.004,0.74515 -0.59715,1.34505 -1.3389,1.34505 -0.74176,0 -1.34314,-0.5999 -1.33891,-1.34505 l 0.0699,-12.32117 c 0.004,-0.74514 0.59715,-1.34505 1.33891,-1.34505 z"
         sodipodi:nodetypes="sssssss" /><path
         id="rect15-65"
         style="fill:url(#linearGradient44);stroke-width:5.06178;stroke-linecap:round;stroke-linejoin:round;paint-order:markers stroke fill"
         transform="matrix(0.84816408,-0.5297336,0.53588448,0.84429131,0,0)"
         d="m 182.25831,197.49804 c 0.74176,0 1.33857,0.59989 1.33891,1.34505 l 0.006,13.74909 c 3.4e-4,0.74516 -0.59715,1.34505 -1.33891,1.34505 -0.74175,0 -1.34008,-0.59989 -1.33891,-1.34505 l 0.0233,-14.83153 c 0.001,-0.74516 0.56787,-0.26261 1.30962,-0.26261 z"
         sodipodi:nodetypes="sssssss" /><path
         id="rect15-45"
         style="fill:url(#linearGradient24);fill-opacity:1;stroke-width:5.96385;stroke-linecap:round;stroke-linejoin:round;paint-order:markers stroke fill"
         transform="matrix(0.84816408,-0.5297336,0.53588448,0.84429131,0,0)"
         d="m 41.61602,195.81593 c 0.873946,0 1.579939,0.7068 1.577519,1.58476 l -0.04167,15.11738 c -0.0024,0.87796 -0.703573,1.58476 -1.577519,1.58476 -0.873945,0 -1.579938,-0.7068 -1.577518,-1.58476 l 0.04167,-15.11738 c 0.0024,-0.87796 0.703573,-1.58476 1.577518,-1.58476 z"
         sodipodi:nodetypes="sssssss" /><path
         id="rect15-44"
         style="fill:url(#linearGradient26);fill-opacity:1;stroke-width:5.06178;stroke-linecap:round;stroke-linejoin:round;paint-order:markers stroke fill"
         transform="matrix(0.84816408,-0.5297336,0.53588448,0.84429131,0,0)"
         d="m 51.104433,201.58834 c 0.741756,0 1.349848,0.59997 1.338909,1.34505 l -0.204936,13.95886 c -0.01094,0.74507 -0.597153,1.34505 -1.338909,1.34505 -0.741755,0 -1.349847,-0.59998 -1.338908,-1.34505 l 0.204936,-13.95886 c 0.01094,-0.74508 0.597153,-1.34505 1.338908,-1.34505 z"
         sodipodi:nodetypes="sssssss" /><path
         id="rect16"
         style="fill:url(#linearGradient36);fill-opacity:1;stroke-width:5.06178;stroke-linecap:round;stroke-linejoin:round;paint-order:markers stroke fill"
         transform="matrix(0.84816408,-0.5297336,0.53588448,0.84429131,0,0)"
         d="m 130.73319,195.27705 c 0.74175,0 1.33884,0.59989 1.33891,1.34505 l 0.001,14.84565 c 8e-5,0.74516 -0.59716,1.34505 -1.33891,1.34505 -0.74176,0 -1.33883,-0.59989 -1.33891,-1.34505 l -0.001,-14.84565 c -7e-5,-0.74516 0.59715,-1.34505 1.33891,-1.34505 z"
         sodipodi:nodetypes="sssssss" /><path
         id="rect17"
         style="fill:url(#linearGradient30);fill-opacity:1;stroke-width:5.06178;stroke-linecap:round;stroke-linejoin:round;paint-order:markers stroke fill"
         transform="matrix(0.84816408,-0.5297336,0.53588448,0.84429131,0,0)"
         d="m 86.839275,206.06118 c 0.741756,0 1.340564,0.5999 1.338909,1.34505 l -0.02969,13.36405 c -0.0017,0.74515 -0.597153,1.34505 -1.338909,1.34505 -0.741755,0 -1.340563,-0.5999 -1.338908,-1.34505 l 0.02969,-13.36405 c 0.0017,-0.74515 0.597153,-1.34505 1.338908,-1.34505 z"
         sodipodi:nodetypes="sssssss" /><path
         id="rect18"
         style="fill:url(#linearGradient40);fill-opacity:1;stroke-width:5.06178;stroke-linecap:round;stroke-linejoin:round;paint-order:markers stroke fill"
         transform="matrix(0.84816408,-0.5297336,0.53588448,0.84429131,0,0)"
         d="m 162.98889,198.23233 c 0.74175,0 1.33527,0.5999 1.33891,1.34505 l 0.0591,12.08776 c 0.004,0.74515 -0.59716,1.34505 -1.33891,1.34505 -0.74176,0 -1.33526,-0.5999 -1.33891,-1.34505 l -0.0591,-12.08776 c -0.004,-0.74515 0.59715,-1.34505 1.33891,-1.34505 z"
         sodipodi:nodetypes="sssssss" /><path
         id="path3"
         style="fill:url(#linearGradient21)"
         d="m 162.13396,147.58521 c 0.46379,-0.0488 1.04686,-1.09282 1.34455,-1.81618 0.29769,-0.72336 1.21338,-2.43083 0.29165,-2.86226 -1.62782,-0.76193 -5.18502,-1.47843 -8.01363,-1.8766 -5.29107,-0.7448 -11.06281,-1.09746 -16.22676,0.37056 -7.57181,2.52253 -10.45621,8.4011 -10.17924,8.67806 9.78895,-7.98491 22.44086,-5.44466 32.78343,-2.49358 z m 9.70629,0.83156 c -0.85751,-0.0498 -0.11328,-1.70797 0.17281,-2.49006 0.31983,-0.87431 0.74032,-2.2588 1.6514,-2.2588 9.18517,-0.15875 17.09146,-0.46735 23.45272,-8.02044 6.59567,-8.57155 4.70773,-16.30149 8.78005,-31.37757 4.07232,-15.076076 16.80953,-17.681377 29.47104,-13.438908 0.32522,0.108972 -1.0395,4.05836 -1.18789,4.24856 -6.54686,-1.413425 -11.70528,-2.051169 -16.36462,0.77445 -12.28405,7.449558 -4.90991,28.317648 -18.10679,44.042608 -6.53423,7.78597 -17.96656,9.45267 -27.86872,8.52011 z M 275.58338,65.0094 c -0.89418,1.073188 -2.58656,7.571965 -2.56965,7.574325 -1.25599,5.100295 -7.73288,21.230781 -28.78788,18.927805 l -0.56203,2.134908 c -0.30919,1.1742 -0.49772,2.199291 -0.41912,2.278091 7.87734,2.94719 18.76481,-0.95614 24.67293,-5.370092 9.97676,-8.375709 9.1817,-27.364487 7.66575,-25.545037 z"
         sodipodi:nodetypes="csssccccsccsscssccscccccs" /></g></g></svg>
